HIERARCHY
ROOT Hips
{
	OFFSET 0.00000 0.00000 0.00000
	CHANNELS 6 Xposition Yposition Zposition Zrotation Yrotation Xrotation 
	JOINT RightUpLegDummy
	{
		OFFSET 0 0 0
		CHANNELS 3 Zrotation Yrotation Xrotation
		JOINT RightUpLeg
		{
			OFFSET -3.52197 -3.41223 0.04002
			CHANNELS 3 Zrotation Yrotation Xrotation
			JOINT RightLeg
			{
				OFFSET 0.00006 -17.42390 1.60435
				CHANNELS 3 Zrotation Yrotation Xrotation
				JOINT RightFoot
				{
					OFFSET 0.06153 -16.50078 -1.63901
					CHANNELS 3 Zrotation Yrotation Xrotation
					JOINT RightToes
					{
						OFFSET 0.00298 -1.73825 3.34613
						CHANNELS 3 Zrotation Yrotation Xrotation
						End Site
						{
							OFFSET 0.00480 -0.05416 3.85043
						}
					}
				}
			}
		}
	}
	JOINT SpineDummy
	{
		OFFSET 0 0 0
		CHANNELS 3 Zrotation Yrotation Xrotation
		JOINT Spine
		{
			OFFSET 0.00000 4.68130 0.00000
			CHANNELS 3 Zrotation Yrotation Xrotation
			JOINT Spine1
			{
				OFFSET -0.00000 10.10138 0.05002
				CHANNELS 3 Zrotation Yrotation Xrotation
				JOINT HEadDummy
				{
					OFFSET 0 0 0
					CHANNELS 3 Zrotation Yrotation Xrotation
					JOINT Head
					{
						OFFSET -0.00000 3.43865 0.00438
						CHANNELS 3 Zrotation Yrotation Xrotation
						End Site
						{
							OFFSET -0.11417 5.02924 0.98962
						}
					}
				}
				JOINT LeftShoulder1Dummy
				{
					OFFSET 0 0 0
					CHANNELS 3 Zrotation Yrotation Xrotation
					JOINT LeftShoulder1
					{
						OFFSET 3.53937 -0.14262 -0.08662
						CHANNELS 3 Zrotation Yrotation Xrotation
						JOINT LeftArm
						{
							OFFSET 4.04833 -0.00133 0.12681
							CHANNELS 3 Zrotation Yrotation Xrotation
							JOINT LeftForeArm
							{
								OFFSET 10.33880 -0.01036 -0.55515
								CHANNELS 3 Zrotation Yrotation Xrotation
								JOINT LeftHand
								{
									OFFSET 8.69677 0.07543 0.40060
									CHANNELS 3 Zrotation Yrotation Xrotation
									End Site
									{
										OFFSET 5.28377 -0.21905 0.59205
									}
								}
							}
						}
					}
				}
				JOINT RightShoulderDummy
				{
					OFFSET 0 0 0
					CHANNELS 3 Zrotation Yrotation Xrotation
					JOINT RightShoulder
					{
						OFFSET -3.53937 -0.14262 -0.08660
						CHANNELS 3 Zrotation Yrotation Xrotation
						JOINT RightArm
						{
							OFFSET -4.04833 -0.00133 0.12683
							CHANNELS 3 Zrotation Yrotation Xrotation
							JOINT RightForeArm
							{
								OFFSET -10.37987 -0.01039 -0.55511
								CHANNELS 3 Zrotation Yrotation Xrotation
								JOINT RightHand
								{
									OFFSET -8.67398 0.07538 0.40058
									CHANNELS 3 Zrotation Yrotation Xrotation
									End Site
									{
										OFFSET -5.24810 -0.21916 0.59204
									}
								}
							}
						}
					}
				}
			}
		}
	}
	JOINT LeftUpLegDummy
	{
		OFFSET 0 0 0
		CHANNELS 3 Zrotation Yrotation Xrotation
		JOINT LeftUpLeg
		{
			OFFSET 3.52197 -3.41223 0.04002
			CHANNELS 3 Zrotation Yrotation Xrotation
			JOINT LeftLeg
			{
				OFFSET -0.00012 -17.42399 1.60337
				CHANNELS 3 Zrotation Yrotation Xrotation
				JOINT LeftFoot
				{
					OFFSET -0.09972 -16.50070 -1.63802
					CHANNELS 3 Zrotation Yrotation Xrotation
					JOINT LeftToes
					{
						OFFSET -0.01575 -1.73823 3.34611
						CHANNELS 3 Zrotation Yrotation Xrotation
						End Site
						{
							OFFSET 0.03150 -0.01868 3.85031
						}
					}
				}
			}
		}
	}
}
MOTION
Frames: 8
Frame Time: 0.033333
42.0579 39.8127 80.6830 -179.3660 -6.0108 176.7970 0.0000 0.0000 0.0000 1.6704 -1.9731 3.8177 -2.7810 -13.4509 4.1930 -0.6793 0.0302 -4.6104 0.0000 -0.0000 -0.0000 0.0000 0.0000 0.0000 0.9971 0.0611 0.8788 2.2292 -0.4512 2.2304 -0.0000 0.0000 -0.0000 1.8530 2.1319 -1.1313 -0.0000 0.0000 -0.0000 -34.2830 -2.4395 2.3962 -44.5771 -15.4226 -17.7914 -10.1777 5.0613 50.4645 14.9532 -4.9333 -1.2936 -0.0000 0.0000 -0.0000 34.7043 5.1005 3.5052 41.2255 5.3443 -17.1348 1.8564 6.2198 -152.2613 9.5776 23.9209 2.6633 0.0000 0.0000 0.0000 0.7704 1.6165 2.1731 -0.5140 -2.3041 5.9465 3.0075 -0.1404 -4.9792 0.0000 0.0000 -0.0000
42.0512 39.8127 80.6844 -179.3370 -6.1286 176.8430 0.0000 0.0000 0.0000 1.6866 -1.9751 3.7901 -2.7736 -13.5643 4.1567 -0.6654 0.0293 -4.5827 0.0000 -0.0000 -0.0000 0.0000 0.0000 0.0000 1.0241 0.0137 0.7506 2.1978 -0.4993 2.3869 -0.0000 0.0000 -0.0000 1.9513 2.1066 -1.2097 -0.0000 0.0000 -0.0000 -34.1217 -2.4090 2.3744 -44.6645 -15.3921 -17.5644 -10.3180 5.0685 50.1700 15.1767 -4.5020 -1.2602 -0.0000 0.0000 -0.0000 34.7186 5.1005 3.5052 41.1800 5.3975 -17.3411 1.8148 5.9212 -151.9775 9.6893 23.9325 2.6931 0.0000 0.0000 0.0000 0.8320 1.6928 2.0807 -0.6252 -2.4866 6.0025 3.0618 -0.1439 -4.9910 0.0000 0.0000 -0.0000
42.0396 39.8127 80.6912 -179.3000 -6.3024 176.8850 0.0000 0.0000 0.0000 1.6981 -1.9843 3.7547 -2.7638 -13.7149 4.1347 -0.6373 0.0274 -4.5548 0.0000 -0.0000 -0.0000 0.0000 0.0000 0.0000 1.0591 -0.0492 0.4673 2.1394 -0.5669 2.9073 -0.0000 0.0000 -0.0000 2.0830 2.0368 -1.4953 -0.0000 0.0000 -0.0000 -33.6650 -2.3009 2.3041 -45.0104 -15.5828 -17.3500 -10.3988 5.0785 49.8043 15.6066 -3.9698 -1.2298 -0.0000 0.0000 -0.0000 34.6334 5.0871 3.4923 41.2118 5.6626 -17.7185 1.7136 5.3490 -151.6381 9.9170 23.8259 2.7415 0.0000 0.0000 0.0000 0.9675 1.8884 1.9672 -0.8935 -2.8423 6.0822 3.1934 -0.1523 -5.0063 0.0000 0.0000 -0.0000
42.0305 39.8127 80.7055 -179.2750 -6.4207 176.9010 0.0000 0.0000 0.0000 1.7000 -1.9927 3.7166 -2.7602 -13.8123 4.1484 -0.6348 0.0272 -4.5383 0.0000 -0.0000 -0.0000 0.0000 0.0000 0.0000 1.0277 -0.0543 0.5838 2.1839 -0.5767 2.7919 -0.0000 0.0000 -0.0000 2.1725 1.8413 -1.5197 -0.0000 0.0000 -0.0000 -33.6006 -2.2856 2.2944 -44.9174 -15.5101 -17.4350 -10.3724 5.0782 49.8263 15.8407 -3.8686 -1.2358 -0.0000 0.0000 -0.0000 34.7265 5.1035 3.5071 40.9778 5.5448 -17.9951 1.7027 5.1578 -150.6271 9.1150 23.3949 2.4940 0.0000 0.0000 0.0000 1.0508 2.0115 1.8845 -1.0680 -3.0778 6.1464 3.2916 -0.1586 -5.0111 0.0000 0.0000 -0.0000
42.0255 39.8127 80.7232 -179.2570 -6.4641 176.9090 0.0000 0.0000 0.0000 1.7102 -1.9839 3.6788 -2.7666 -13.8635 4.1546 -0.6465 0.0278 -4.5146 0.0000 -0.0000 -0.0000 0.0000 0.0000 0.0000 0.9967 -0.0319 0.7103 2.2416 -0.5601 2.6481 -0.0000 0.0000 -0.0000 2.2173 1.5200 -1.5662 -0.0000 0.0000 -0.0000 -33.6674 -2.3326 2.3169 -44.7446 -15.4568 -17.6905 -10.2232 5.0686 50.2064 15.6751 -4.0381 -1.2441 -0.0000 0.0000 -0.0000 34.6814 5.0953 3.4998 40.8745 5.4785 -18.3608 1.7626 5.6585 -146.8210 5.8053 23.2387 1.6537 0.0000 0.0000 0.0000 1.0540 2.0033 1.8194 -1.0676 -3.1012 6.1905 3.3191 -0.1604 -5.0018 0.0000 0.0000 -0.0000
42.0202 39.8127 80.7377 -179.2320 -6.4407 176.9050 0.0000 0.0000 0.0000 1.7273 -1.9701 3.6679 -2.7612 -13.8614 4.1270 -0.6323 0.0268 -4.4768 0.0000 -0.0000 -0.0000 0.0000 0.0000 0.0000 1.1512 -0.0196 0.8693 2.0296 -0.5048 2.4660 -0.0000 0.0000 -0.0000 2.2671 1.1372 -1.6486 -0.0000 0.0000 -0.0000 -33.6703 -2.3824 2.3368 -44.5994 -15.3460 -17.8212 -10.1522 5.0604 50.5056 15.3999 -3.9947 -1.2159 -0.0000 0.0000 -0.0000 34.7659 5.1142 3.5149 40.8539 5.3629 -18.1235 1.7905 5.8232 -147.7278 5.7575 22.9960 1.6260 0.0000 0.0000 0.0000 1.0635 2.0034 1.7901 -1.0552 -3.0505 6.2110 3.3349 -0.1614 -4.9836 0.0000 0.0000 -0.0000
42.0116 39.8127 80.7493 -179.2010 -6.3693 176.8880 0.0000 0.0000 0.0000 1.7400 -1.9647 3.6772 -2.7362 -13.8009 4.0858 -0.6031 0.0248 -4.4338 0.0000 -0.0000 -0.0000 0.0000 0.0000 0.0000 1.4232 0.0234 1.0726 1.6585 -0.3894 2.2712 -0.0000 0.0000 -0.0000 2.3320 0.8694 -1.7104 -0.0000 0.0000 -0.0000 -33.5718 -2.4232 2.3471 -44.5423 -15.2485 -17.8234 -10.1642 5.0584 50.5657 15.3806 -3.6707 -1.1736 -0.0000 0.0000 -0.0000 35.0127 5.1650 3.5574 40.6149 5.1098 -18.0159 1.8272 6.0017 -147.7269 5.3273 23.1210 1.5264 0.0000 0.0000 0.0000 1.0918 2.0330 1.7924 -1.0657 -2.9871 6.2158 3.3386 -0.1617 -4.9686 0.0000 0.0000 -0.0000
42.0043 39.8127 80.7624 -179.1830 -6.2654 176.8790 0.0000 0.0000 0.0000 1.7436 -1.9576 3.6643 -2.7172 -13.7068 4.0666 -0.6047 0.0248 -4.3992 0.0000 -0.0000 -0.0000 0.0000 0.0000 0.0000 1.5203 0.0986 1.3232 1.6092 -0.2984 2.0082 -0.0000 0.0000 -0.0000 2.3852 0.9781 -1.6231 -0.0000 0.0000 -0.0000 -33.7854 -2.4689 2.3780 -44.2917 -15.1283 -17.8610 -10.1916 5.0590 50.5339 15.5184 -3.4618 -1.1581 -0.0000 0.0000 -0.0000 35.0007 5.1770 3.5612 40.4611 4.8847 -18.0455 1.8446 6.0749 -147.2629 4.9921 22.8670 1.4297 0.0000 0.0000 0.0000 1.0411 1.9382 1.7960 -0.9298 -2.7972 6.1992 3.2581 -0.1565 -4.9538 0.0000 0.0000 -0.0000
